<?xml version="1.0" encoding="UTF-8" standalone="no"?>
<svg
   width="108"
   height="108"
   viewBox="0 0 108 108"
   version="1.1"
   id="svg16"
   xmlns:xlink="http://www.w3.org/1999/xlink"
   xmlns="http://www.w3.org/2000/svg"
   xmlns:svg="http://www.w3.org/2000/svg"><defs
   id="defs20">
  <linearGradient
     id="linearGradient1229">
    <stop
       style="stop-color:#fffbce;stop-opacity:1;"
       offset="0"
       id="stop1225" />
    <stop
       style="stop-color:#d99d26;stop-opacity:0.75;"
       offset="1"
       id="stop1227" />
  </linearGradient>
  <linearGradient
     id="linearGradient1211">
    <stop
       style="stop-color:#e87f00;stop-opacity:0.52941179;"
       offset="0"
       id="stop1207" />
    <stop
       style="stop-color:#ff8c00;stop-opacity:0;"
       offset="1"
       id="stop1209" />
  </linearGradient>
  <linearGradient
     id="linearGradient1195">
    <stop
       style="stop-color:#b8b895;stop-opacity:1;"
       offset="0"
       id="stop1191" />
    <stop
       style="stop-color:#1e1e14;stop-opacity:1;"
       offset="1"
       id="stop1193" />
  </linearGradient>
  <linearGradient
     xlink:href="#linearGradient1195"
     id="linearGradient1197"
     x1="10"
     y1="70.475305"
     x2="20"
     y2="70.475305"
     gradientUnits="userSpaceOnUse"
     gradientTransform="matrix(2,0,0,0.53642642,24,52.752768)" />
  <radialGradient
     xlink:href="#linearGradient1211"
     id="radialGradient1213"
     cx="55.5"
     cy="36"
     fx="55.5"
     fy="36"
     r="4.5"
     gradientTransform="matrix(3.5555554,0,0,7.1111108,-143.33333,-212)"
     gradientUnits="userSpaceOnUse" />
  <radialGradient
     xlink:href="#linearGradient1229"
     id="radialGradient1233"
     cx="55.5"
     cy="38.625"
     fx="55.5"
     fy="38.625"
     r="2.25"
     gradientTransform="matrix(3.5555554,0,0,6.5185182,-143.33333,-198.44444)"
     gradientUnits="userSpaceOnUse" />
</defs>



\n
\n  <path
   d="m 53,66 h 2 v 5 h -2 z"
   fill="#222222"
   id="path4"
   style="stroke-width:1.58113" />
<path
   d="M 54,12 C 40.666667,33.333333 38,44 38,60 38,68 46,76 54,76 62,76 70,68 70,60 70,44 67.333333,33.333333 54,12 Z"
   fill="#ff8c00"
   id="path6"
   style="fill:url(#radialGradient1213);fill-opacity:1;stroke-width:5.33331" />
<path
   d="m 54,38.666667 c -5.333333,10.666666 -8,16 -8,21.333333 0,5.333333 2.666667,8 8,8 5.333333,0 8,-2.666667 8,-8 0,-5.333333 -2.666667,-10.666667 -8,-21.333333 z"
   fill="#ffd700"
   id="path8"
   style="fill:url(#radialGradient1233);fill-opacity:1;stroke-width:5.33331" />


\n
\n

\n
\n
\n
\n<path
   id="rect995"
   style="fill:url(#linearGradient1197);fill-opacity:1;stroke-width:15.3894"
   d="m 44,74.209829 c 3.868242,-7.271196 19.819365,-3.673691 20,0 V 108 H 44 Z"
    />
</svg>
